<svg width="20" height="20" viewBox="0 0 20 20" fill="none" xmlns="http://www.w3.org/2000/svg">
<circle cx="10" cy="10" r="10" fill="#232931"/>
<path d="M4.25568 6.72727H5.2642L7.28125 10.1222H7.36648L9.38352 6.72727H10.392L7.7642 11.0028V14H6.88352V11.0028L4.25568 6.72727ZM14.4545 11.7699V8.54545H15.2926V14H14.4545V13.0767H14.3977C14.2699 13.3537 14.071 13.5893 13.8011 13.7834C13.5313 13.9751 13.1903 14.071 12.7784 14.071C12.4375 14.071 12.1345 13.9964 11.8693 13.8473C11.6042 13.6958 11.3958 13.4685 11.2443 13.1655C11.0928 12.8601 11.017 12.4754 11.017 12.0114V8.54545H11.8551V11.9545C11.8551 12.3523 11.9664 12.6695 12.1889 12.9062C12.4138 13.143 12.7003 13.2614 13.0483 13.2614C13.2566 13.2614 13.4685 13.2081 13.6839 13.1016C13.9018 12.995 14.084 12.8317 14.2308 12.6115C14.38 12.3913 14.4545 12.1108 14.4545 11.7699Z" fill="white"/>
</svg>
